<?xml version="1.0" encoding="utf-8"?>
<!-- Generator: Adobe Illustrator 25.1.0, SVG Export Plug-In . SVG Version: 6.00 Build 0)  -->
<svg version="1.1" id="Capa_2_1_" xmlns="http://www.w3.org/2000/svg" xmlns:xlink="http://www.w3.org/1999/xlink" x="0px" y="0px"
	 viewBox="0 0 161.6 68" style="enable-background:new 0 0 161.6 68;" xml:space="preserve">
<style type="text/css">
	.st0{fill:#1D1D1B;}
	.st1{fill:#009FE3;}
</style>
<g>
	<g>
		<g>
			<g>
				<path class="st0" d="M154.2,19c0.2,0,0.4,0,0.6,0.1c0.2,0.1,0.3,0.2,0.5,0.3c0.1,0.1,0.2,0.3,0.3,0.4c0.1,0.2,0.1,0.3,0.1,0.5
					c0,0.3-0.1,0.5-0.2,0.8c-0.1,0.2-0.3,0.4-0.6,0.5l0,0c0.1,0,0.2,0.1,0.3,0.2s0.2,0.2,0.2,0.3c0.1,0.1,0.1,0.2,0.1,0.3
					s0,0.3,0.1,0.4c0,0.1,0,0.2,0,0.3c0,0.1,0,0.2,0,0.3c0,0.1,0,0.2,0.1,0.3c0,0.1,0.1,0.2,0.1,0.3h-1.1c-0.1-0.2-0.1-0.3-0.1-0.6
					c0-0.2,0-0.4-0.1-0.6c0-0.3-0.1-0.5-0.2-0.6c-0.1-0.1-0.3-0.2-0.6-0.2h-1.1v1.9h-1.1v-5h2.7V19z M153.8,21.3
					c0.3,0,0.4-0.1,0.6-0.2c0.1-0.1,0.2-0.3,0.2-0.5s-0.1-0.4-0.2-0.5c-0.1-0.1-0.3-0.2-0.6-0.2h-1.2v1.4
					C152.6,21.3,153.8,21.3,153.8,21.3z"/>
			</g>
			<g>
				<path class="st0" d="M153.4,25.7c-2.3,0-4.2-1.9-4.2-4.2s1.9-4.2,4.2-4.2s4.2,1.9,4.2,4.2S155.7,25.7,153.4,25.7z M153.4,17.7
					c-2.1,0-3.8,1.7-3.8,3.8s1.7,3.8,3.8,3.8s3.8-1.7,3.8-3.8S155.5,17.7,153.4,17.7z"/>
			</g>
		</g>
		<g>
			<path class="st0" d="M60.9,22.1H56V41h-4.6V22.1h-4.9v-3.7h14.4V22.1z"/>
			<path class="st0" d="M64.1,34.5c0,0.5,0,1,0.1,1.5s0.2,0.9,0.4,1.3c0.2,0.4,0.4,0.7,0.7,0.9c0.3,0.2,0.6,0.3,1,0.3
				c0.7,0,1.3-0.3,1.6-0.8c0.3-0.5,0.6-1.3,0.7-2.4h3.9c-0.1,2-0.6,3.5-1.6,4.5s-2.5,1.5-4.6,1.5c-1.6,0-2.8-0.3-3.7-0.8
				s-1.5-1.2-2-2.1c-0.4-0.8-0.6-1.8-0.7-2.8c-0.1-1.1-0.1-2.2-0.1-3.2c0-1.1,0.1-2.2,0.2-3.3c0.2-1.1,0.5-2,0.9-2.8
				c0.5-0.8,1.2-1.5,2-2c0.9-0.5,2.1-0.7,3.5-0.7c1.3,0,2.3,0.2,3.1,0.6c0.8,0.4,1.4,1,1.9,1.7s0.8,1.7,0.9,2.7
				c0.2,1.1,0.3,2.3,0.3,3.6v1H64L64.1,34.5L64.1,34.5z M68.4,28.8c-0.1-0.5-0.2-0.9-0.3-1.3c-0.2-0.3-0.4-0.6-0.7-0.8
				c-0.3-0.2-0.6-0.3-1.1-0.3c-0.4,0-0.8,0.1-1.1,0.3c-0.3,0.2-0.5,0.5-0.7,0.8s-0.3,0.7-0.4,1.1C64,29,64,29.4,64,29.8v0.8h4.5
				C68.5,29.9,68.5,29.3,68.4,28.8z"/>
			<path class="st0" d="M83.1,28.9c-0.1-0.4-0.1-0.8-0.3-1.1c-0.1-0.3-0.3-0.6-0.6-0.8s-0.6-0.3-1-0.3c-0.5,0-1,0.1-1.3,0.4
				c-0.3,0.2-0.6,0.6-0.8,1.1c-0.2,0.5-0.3,1.1-0.3,1.8c-0.1,0.7-0.1,1.6-0.1,2.6c0,1.1,0,2,0.1,2.7s0.2,1.4,0.3,1.9
				c0.2,0.5,0.4,0.8,0.7,1.1c0.3,0.2,0.7,0.3,1.2,0.3c0.7,0,1.3-0.3,1.6-0.9c0.3-0.6,0.5-1.6,0.5-3h4.2c0,2.2-0.5,3.9-1.5,5.1
				c-1,1.2-2.7,1.8-5,1.8c-1.1,0-2.1-0.1-2.9-0.4c-0.8-0.3-1.5-0.7-2-1.4S75,38.2,74.7,37c-0.3-1.1-0.4-2.6-0.4-4.3
				c0-1.7,0.2-3.2,0.5-4.3c0.3-1.1,0.8-2.1,1.4-2.8c0.6-0.7,1.3-1.2,2.2-1.4c0.8-0.3,1.8-0.4,2.8-0.4c2,0,3.5,0.6,4.6,1.8
				c1,1.2,1.5,2.8,1.5,4.8h-4.2C83.2,29.7,83.2,29.3,83.1,28.9z"/>
			<path class="st0" d="M93.8,24v2h0.1c0.5-0.8,1.1-1.5,1.8-1.9c0.7-0.4,1.6-0.6,2.5-0.6c1.4,0,2.5,0.4,3.2,1.1
				c0.7,0.8,1.1,2,1.1,3.7v12.6h-4.4V29.3c0-0.9-0.1-1.5-0.4-1.9c-0.3-0.3-0.8-0.5-1.4-0.5c-1.5,0-2.3,0.9-2.3,2.8V41h-4.4V24
				C89.6,24,93.8,24,93.8,24z"/>
			<path class="st0" d="M105.2,28.6c0.2-1.1,0.6-2.1,1.1-2.8c0.5-0.7,1.2-1.3,2.1-1.7c0.9-0.4,1.9-0.6,3.1-0.6
				c1.3,0,2.4,0.2,3.3,0.5c0.9,0.4,1.5,0.9,2.1,1.7c0.5,0.8,0.9,1.7,1.1,2.8c0.2,1.1,0.3,2.4,0.3,3.9c0,1.5-0.1,2.7-0.3,3.9
				c-0.2,1.1-0.6,2.1-1.1,2.8s-1.2,1.3-2.1,1.7s-1.9,0.5-3.1,0.5c-1.3,0-2.4-0.1-3.3-0.5c-0.9-0.3-1.5-0.9-2.1-1.6
				c-0.5-0.7-0.9-1.7-1.1-2.8s-0.3-2.4-0.3-3.9C104.9,31,105,29.7,105.2,28.6z M109.3,34.9c0,0.7,0.1,1.4,0.3,1.9
				c0.2,0.5,0.4,0.9,0.7,1.2c0.3,0.3,0.7,0.4,1.3,0.4c0.9,0,1.5-0.5,1.8-1.4s0.5-2.5,0.5-4.6s-0.2-3.7-0.5-4.6s-0.9-1.4-1.8-1.4
				c-0.5,0-0.9,0.1-1.3,0.4c-0.3,0.3-0.6,0.7-0.7,1.2c-0.2,0.5-0.3,1.2-0.3,1.9c0,0.7-0.1,1.5-0.1,2.4
				C109.2,33.4,109.3,34.2,109.3,34.9z"/>
			<path class="st0" d="M133.1,24l-4.3,17h-5.1l-4.4-17h4.6l2.4,12.2h0.1l2.3-12.2C128.7,24,133.1,24,133.1,24z"/>
			<path class="st0" d="M134.6,28.8c0-1,0.2-1.8,0.5-2.5s0.7-1.2,1.3-1.6c0.5-0.4,1.2-0.7,1.9-0.9c0.7-0.2,1.5-0.3,2.3-0.3
				c1.3,0,2.4,0.1,3.2,0.4s1.4,0.6,1.9,1.1c0.4,0.5,0.7,1,0.9,1.7c0.2,0.6,0.2,1.3,0.2,2.1v9c0,0.8,0,1.4,0.1,1.9
				c0.1,0.4,0.2,0.9,0.4,1.4h-4.2c-0.1-0.3-0.3-0.6-0.3-0.9c-0.1-0.3-0.1-0.6-0.2-0.9h-0.1c-0.5,0.9-1.1,1.5-1.8,1.7
				c-0.7,0.3-1.5,0.4-2.6,0.4c-0.8,0-1.4-0.1-1.9-0.4c-0.5-0.3-0.9-0.6-1.3-1.1c-0.3-0.5-0.5-1-0.7-1.6c-0.1-0.6-0.2-1.2-0.2-1.7
				c0-0.8,0.1-1.5,0.3-2.1s0.4-1.1,0.8-1.5c0.3-0.4,0.8-0.8,1.3-1c0.5-0.2,1.2-0.5,1.9-0.7l2.5-0.7c0.7-0.2,1.1-0.4,1.4-0.7
				c0.3-0.3,0.4-0.7,0.4-1.3c0-0.7-0.2-1.2-0.5-1.5c-0.3-0.4-0.8-0.6-1.6-0.6c-0.7,0-1.2,0.2-1.5,0.6s-0.5,0.9-0.5,1.6v0.5h-3.9
				L134.6,28.8L134.6,28.8z M141.7,33c-0.3,0.1-0.6,0.2-0.9,0.3c-0.9,0.2-1.5,0.5-1.9,0.9s-0.6,1-0.6,1.8c0,0.7,0.1,1.2,0.4,1.7
				c0.3,0.5,0.7,0.7,1.3,0.7c0.3,0,0.6,0,0.9-0.1c0.3-0.1,0.6-0.2,0.9-0.5c0.3-0.2,0.5-0.5,0.6-0.8c0.2-0.3,0.3-0.7,0.3-1.2v-3.4
				C142.3,32.7,142,32.9,141.7,33z"/>
		</g>
		<g>
			<path class="st0" d="M54.8,44.7c-0.3-0.2-0.6-0.3-1.1-0.3c-0.2,0-0.4,0-0.5,0.1c-0.2,0-0.3,0.1-0.5,0.2c-0.1,0.1-0.2,0.2-0.3,0.3
				s-0.1,0.3-0.1,0.5s0.1,0.4,0.2,0.5c0.1,0.1,0.3,0.2,0.5,0.3s0.4,0.1,0.7,0.2c0.2,0.1,0.5,0.1,0.7,0.2c0.3,0.1,0.5,0.1,0.7,0.2
				s0.5,0.2,0.7,0.3s0.3,0.3,0.5,0.5c0.1,0.2,0.2,0.5,0.2,0.8s-0.1,0.6-0.2,0.9c-0.2,0.2-0.3,0.4-0.6,0.6c-0.2,0.2-0.5,0.3-0.8,0.3
				c-0.3,0.1-0.6,0.1-0.9,0.1c-0.4,0-0.7,0-1-0.1s-0.6-0.2-0.8-0.4s-0.4-0.4-0.6-0.7c-0.1-0.3-0.2-0.6-0.2-1H52
				c0,0.3,0.1,0.5,0.2,0.7c0.1,0.2,0.2,0.4,0.4,0.5s0.4,0.2,0.6,0.3c0.2,0.1,0.5,0.1,0.7,0.1s0.4,0,0.6-0.1c0.2,0,0.4-0.1,0.5-0.2
				c0.2-0.1,0.3-0.2,0.4-0.4c0.1-0.1,0.1-0.3,0.1-0.6c0-0.2-0.1-0.4-0.2-0.5c-0.1-0.1-0.3-0.2-0.5-0.3s-0.4-0.2-0.7-0.2
				c-0.2-0.1-0.5-0.1-0.7-0.2c-0.3-0.1-0.5-0.1-0.7-0.2c-0.2-0.1-0.5-0.2-0.7-0.3s-0.3-0.3-0.5-0.5c-0.1-0.2-0.2-0.4-0.2-0.7
				s0.1-0.6,0.2-0.8s0.3-0.4,0.5-0.6c0.2-0.2,0.5-0.3,0.7-0.3c0.3-0.1,0.6-0.1,0.9-0.1c0.3,0,0.6,0,0.9,0.1s0.5,0.2,0.7,0.4
				s0.4,0.4,0.5,0.6c0.1,0.3,0.2,0.6,0.2,0.9h-0.8C55.3,45.2,55.1,44.9,54.8,44.7z"/>
			<path class="st0" d="M57.2,46.9c0.1-0.3,0.2-0.6,0.4-0.8s0.4-0.4,0.7-0.5s0.6-0.2,1-0.2s0.7,0.1,1,0.2c0.3,0.1,0.5,0.3,0.7,0.5
				s0.3,0.5,0.4,0.8c0.1,0.3,0.1,0.6,0.1,1c0,0.3,0,0.7-0.1,0.9c-0.1,0.3-0.2,0.5-0.4,0.8c-0.2,0.2-0.4,0.4-0.7,0.5s-0.6,0.2-1,0.2
				s-0.7-0.1-1-0.2c-0.3-0.1-0.5-0.3-0.7-0.5s-0.3-0.5-0.4-0.8c-0.1-0.3-0.1-0.6-0.1-0.9C57,47.5,57.1,47.2,57.2,46.9z M57.9,48.6
				c0.1,0.2,0.2,0.4,0.3,0.5s0.3,0.3,0.5,0.3c0.2,0.1,0.4,0.1,0.6,0.1c0.2,0,0.4,0,0.6-0.1c0.2-0.1,0.3-0.2,0.5-0.3s0.2-0.3,0.3-0.5
				s0.1-0.5,0.1-0.7c0-0.3,0-0.5-0.1-0.7s-0.2-0.4-0.3-0.6s-0.3-0.3-0.5-0.3c-0.2-0.1-0.4-0.1-0.6-0.1c-0.2,0-0.4,0-0.6,0.1
				c-0.2,0.1-0.3,0.2-0.5,0.3s-0.2,0.3-0.3,0.6c-0.1,0.2-0.1,0.5-0.1,0.7C57.8,48.1,57.9,48.4,57.9,48.6z"/>
			<path class="st0" d="M63.2,43.8v6.4h-0.8v-6.4H63.2z"/>
			<path class="st0" d="M67.5,50.2v-0.7l0,0c-0.2,0.3-0.4,0.5-0.6,0.6c-0.3,0.1-0.5,0.2-0.9,0.2c-0.3,0-0.6,0-0.8-0.1
				c-0.2-0.1-0.4-0.2-0.5-0.3s-0.2-0.3-0.3-0.5c-0.1-0.2-0.1-0.4-0.1-0.7v-3h0.8v3.1c0,0.3,0.1,0.5,0.3,0.7c0.2,0.2,0.4,0.3,0.7,0.3
				c0.2,0,0.4,0,0.6-0.1s0.3-0.2,0.4-0.3s0.2-0.3,0.3-0.5c0.1-0.2,0.1-0.4,0.1-0.6v-2.6h0.8v4.6h-0.8V50.2z"/>
			<path class="st0" d="M72.1,46.4c-0.2-0.2-0.4-0.2-0.8-0.2c-0.3,0-0.5,0.1-0.7,0.2c-0.2,0.1-0.3,0.2-0.4,0.4S70,47.2,70,47.4
				c0,0.2-0.1,0.4-0.1,0.7c0,0.2,0,0.4,0.1,0.6c0.1,0.2,0.1,0.4,0.2,0.5c0.1,0.2,0.2,0.3,0.4,0.4c0.2,0,0.4,0,0.7,0
				c0.4,0,0.7-0.1,0.9-0.3c0.2-0.2,0.3-0.5,0.4-0.8h0.8c-0.1,0.6-0.3,1-0.6,1.3c-0.3,0.3-0.8,0.5-1.4,0.5c-0.4,0-0.7-0.1-0.9-0.2
				c-0.3-0.1-0.5-0.3-0.7-0.5s-0.3-0.5-0.4-0.7c-0.1-0.3-0.1-0.6-0.1-1c0-0.3,0-0.7,0.1-1s0.2-0.6,0.4-0.8c0.2-0.2,0.4-0.4,0.7-0.5
				c0.3-0.1,0.6-0.2,1-0.2c0.3,0,0.5,0,0.7,0.1s0.4,0.2,0.6,0.3s0.3,0.3,0.4,0.5s0.2,0.4,0.2,0.7h-0.8
				C72.4,46.7,72.3,46.5,72.1,46.4z"/>
			<path class="st0" d="M74.2,44.7v-0.9H75v0.9H74.2z M75,45.5v4.6h-0.8v-4.6H75z"/>
			<path class="st0" d="M76.1,46.9c0.1-0.3,0.2-0.6,0.4-0.8c0.2-0.2,0.4-0.4,0.7-0.5c0.3-0.1,0.6-0.2,1-0.2s0.7,0.1,1,0.2
				c0.3,0.1,0.5,0.3,0.7,0.5s0.3,0.5,0.4,0.8s0.1,0.6,0.1,1c0,0.3,0,0.7-0.1,0.9c-0.1,0.3-0.2,0.5-0.4,0.8c-0.2,0.2-0.4,0.4-0.7,0.5
				c-0.3,0.1-0.6,0.2-1,0.2s-0.7-0.1-1-0.2c-0.3-0.1-0.5-0.3-0.7-0.5s-0.3-0.5-0.4-0.8S76,48.2,76,47.9C75.9,47.5,76,47.2,76.1,46.9
				z M76.8,48.6c0.1,0.2,0.2,0.4,0.3,0.5s0.3,0.3,0.5,0.3s0.4,0.2,0.6,0.2s0.4,0,0.6-0.1s0.3-0.2,0.5-0.3s0.2-0.3,0.3-0.5
				c0.1-0.2,0.1-0.5,0.1-0.7c0-0.3,0-0.5-0.1-0.7s-0.2-0.4-0.3-0.6s-0.3-0.3-0.5-0.3c-0.2-0.1-0.4-0.1-0.6-0.1s-0.4,0-0.6,0.1
				s-0.3,0.2-0.5,0.3s-0.2,0.3-0.3,0.6c-0.1,0.2-0.1,0.5-0.1,0.7C76.7,48.1,76.7,48.4,76.8,48.6z"/>
			<path class="st0" d="M82,45.5v0.7l0,0c0.3-0.6,0.8-0.8,1.5-0.8c0.3,0,0.6,0,0.8,0.1c0.2,0.1,0.4,0.2,0.5,0.3s0.2,0.3,0.3,0.5
				c0.1,0.2,0.1,0.4,0.1,0.7v3h-0.8v-3.1c0-0.3-0.1-0.5-0.3-0.7c-0.2-0.2-0.4-0.3-0.7-0.3c-0.2,0-0.4,0-0.6,0.1s-0.3,0.2-0.4,0.3
				s-0.2,0.3-0.3,0.5C82,47,82,47.2,82,47.4V50h-0.8v-4.6H82V45.5z"/>
			<path class="st0" d="M89.5,49.9c-0.3,0.3-0.8,0.4-1.3,0.4c-0.4,0-0.7-0.1-1-0.2c-0.3-0.1-0.5-0.3-0.7-0.5s-0.3-0.5-0.4-0.8
				s-0.1-0.6-0.2-1c0-0.4,0.1-0.7,0.2-1s0.3-0.5,0.5-0.8c0.2-0.2,0.4-0.4,0.7-0.5s0.6-0.2,0.9-0.2c0.4,0,0.8,0.1,1,0.3
				c0.3,0.2,0.5,0.4,0.7,0.6c0.2,0.3,0.3,0.5,0.3,0.9c0.1,0.3,0.1,0.6,0.1,0.9h-3.5c0,0.2,0,0.4,0.1,0.6c0.1,0.2,0.1,0.3,0.3,0.5
				c0.1,0.1,0.3,0.3,0.5,0.3c0.1,0.2,0.3,0.2,0.6,0.2s0.6-0.1,0.8-0.2c0.2-0.1,0.3-0.4,0.4-0.7h0.8C90.1,49.2,89.9,49.6,89.5,49.9z
				 M89.4,46.9c-0.1-0.2-0.2-0.3-0.3-0.4c-0.1-0.1-0.3-0.2-0.4-0.3c-0.2-0.1-0.3-0.1-0.5-0.1s-0.4,0-0.5,0.1
				c-0.2,0.1-0.3,0.2-0.4,0.3s-0.2,0.3-0.3,0.4c-0.1,0.2-0.1,0.3-0.1,0.5h2.7C89.5,47.2,89.4,47.1,89.4,46.9z"/>
			<path class="st0" d="M91.6,49.1c0.1,0.1,0.2,0.2,0.3,0.3c0.1,0.1,0.2,0.1,0.4,0.1c0.1,0,0.3,0,0.5,0c0.1,0,0.2,0,0.4,0
				c0.1,0,0.3-0.1,0.4-0.1s0.2-0.1,0.3-0.2C94,49.1,94,49,94,48.8s-0.1-0.3-0.2-0.4c-0.1-0.1-0.3-0.2-0.6-0.2
				c-0.2-0.1-0.5-0.1-0.7-0.2c-0.3-0.1-0.5-0.1-0.7-0.2c-0.2-0.1-0.4-0.2-0.6-0.4C91.1,47.2,91,47,91,46.7c0-0.2,0.1-0.4,0.2-0.6
				c0.1-0.2,0.2-0.3,0.4-0.4c0.2-0.1,0.3-0.2,0.6-0.2c0.2-0.1,0.4-0.1,0.6-0.1c0.3,0,0.5,0,0.7,0.1c0.2,0,0.4,0.1,0.6,0.2
				c0.2,0.1,0.3,0.3,0.4,0.4c0.1,0.2,0.2,0.4,0.2,0.7h-0.8c0-0.1-0.1-0.3-0.1-0.4c-0.1-0.1-0.1-0.2-0.3-0.2
				c-0.1-0.1-0.2-0.1-0.3-0.1c-0.1,0-0.2,0-0.4,0c-0.1,0-0.2,0-0.3,0c-0.1,0-0.2,0-0.3,0.1c-0.1,0-0.2,0.1-0.2,0.2
				c-0.1,0.1-0.1,0.2-0.1,0.3s0,0.2,0.1,0.3s0.2,0.2,0.4,0.2c0.1,0.1,0.3,0.1,0.5,0.1s0.4,0.1,0.5,0.1c0.2,0,0.4,0.1,0.6,0.2
				c0.2,0.1,0.3,0.1,0.5,0.2c0.1,0.1,0.3,0.2,0.3,0.4c0.1,0.1,0.1,0.3,0.1,0.6s-0.1,0.5-0.2,0.7s-0.3,0.3-0.5,0.4
				c-0.2,0.1-0.4,0.2-0.6,0.2s-0.5,0.1-0.7,0.1c-0.3,0-0.5,0-0.7-0.1s-0.4-0.1-0.6-0.3c-0.2-0.1-0.3-0.3-0.4-0.5S91,48.9,91,48.6
				h0.8C91.5,48.9,91.6,49,91.6,49.1z"/>
			<path class="st0" d="M99,43.8v6.4h-0.8v-6.4H99z"/>
			<path class="st0" d="M101.1,45.5v0.7l0,0c0.3-0.6,0.8-0.8,1.5-0.8c0.3,0,0.6,0,0.8,0.1c0.2,0.1,0.4,0.2,0.5,0.3s0.2,0.3,0.3,0.5
				c0.1,0.2,0.1,0.4,0.1,0.7v3h-0.8v-3.1c0-0.3-0.1-0.5-0.3-0.7c-0.2-0.2-0.4-0.3-0.7-0.3c-0.2,0-0.4,0-0.6,0.1s-0.3,0.2-0.4,0.3
				s-0.2,0.3-0.3,0.5c-0.1,0.2-0.1,0.4-0.1,0.6V50h-0.8v-4.6h0.8V45.5z"/>
			<path class="st0" d="M104.8,46.2v-0.7h0.8v-0.7c0-0.4,0.1-0.7,0.3-0.9c0.2-0.2,0.5-0.3,1-0.3c0.1,0,0.2,0,0.2,0
				c0.1,0,0.2,0,0.2,0.1v0.7c-0.1,0-0.1,0-0.2,0s-0.1,0-0.2,0c-0.2,0-0.3,0-0.4,0.1s-0.2,0.2-0.2,0.4v0.6h0.9v0.7h-0.9v4h-0.8v-4
				C105.5,46.2,104.8,46.2,104.8,46.2z"/>
			<path class="st0" d="M107.9,46.9c0.1-0.3,0.2-0.6,0.4-0.8c0.2-0.2,0.4-0.4,0.7-0.5c0.3-0.1,0.6-0.2,1-0.2s0.7,0.1,1,0.2
				c0.3,0.1,0.5,0.3,0.7,0.5s0.3,0.5,0.4,0.8s0.1,0.6,0.1,1c0,0.3,0,0.7-0.1,0.9c-0.1,0.3-0.2,0.5-0.4,0.8c-0.2,0.2-0.4,0.4-0.7,0.5
				c-0.3,0.1-0.6,0.2-1,0.2s-0.7-0.1-1-0.2c-0.3-0.1-0.5-0.3-0.7-0.5s-0.3-0.5-0.4-0.8s-0.1-0.6-0.1-0.9
				C107.7,47.5,107.8,47.2,107.9,46.9z M108.6,48.6c0.1,0.2,0.2,0.4,0.3,0.5s0.3,0.3,0.5,0.3s0.4,0.1,0.6,0.1s0.4,0,0.6-0.1
				s0.3-0.2,0.5-0.3s0.2-0.3,0.3-0.5c0.1-0.2,0.1-0.5,0.1-0.7c0-0.3,0-0.5-0.1-0.7s-0.2-0.4-0.3-0.6s-0.3-0.3-0.5-0.3
				c-0.2-0.1-0.4-0.1-0.6-0.1s-0.4,0-0.6,0.1s-0.3,0.2-0.5,0.3s-0.2,0.3-0.3,0.6c-0.1,0.2-0.1,0.5-0.1,0.7S108.6,48.4,108.6,48.6z"
				/>
			<path class="st0" d="M113.8,45.5v1l0,0c0.2-0.4,0.4-0.7,0.7-0.8c0.3-0.2,0.6-0.3,1-0.3v0.8c-0.3,0-0.6,0-0.8,0.1
				c-0.2,0.1-0.4,0.2-0.5,0.4s-0.2,0.4-0.3,0.6c-0.1,0.2-0.1,0.5-0.1,0.8v2.1H113v-4.6L113.8,45.5L113.8,45.5z"/>
			<path class="st0" d="M116.8,45.5v0.7l0,0c0.3-0.5,0.8-0.8,1.5-0.8c0.3,0,0.5,0.1,0.8,0.2c0.2,0.1,0.4,0.3,0.5,0.6
				c0.2-0.3,0.4-0.4,0.6-0.6c0.3-0.1,0.5-0.2,0.8-0.2c0.2,0,0.4,0,0.6,0.1s0.3,0.1,0.5,0.2c0.1,0.1,0.2,0.2,0.3,0.4
				c0.1,0.2,0.1,0.4,0.1,0.6v3.4h-0.8v-3c0-0.1,0-0.3,0-0.4c0-0.1-0.1-0.2-0.1-0.3c-0.1-0.1-0.2-0.2-0.3-0.2
				c-0.1-0.1-0.3-0.1-0.5-0.1c-0.4,0-0.7,0.1-0.9,0.3c-0.2,0.2-0.3,0.5-0.3,0.9v2.9h-0.8v-3c0-0.1,0-0.3,0-0.4
				c0-0.1-0.1-0.2-0.1-0.3c-0.1-0.1-0.2-0.2-0.3-0.2c-0.1-0.1-0.3-0.1-0.4-0.1c-0.2,0-0.4,0-0.6,0.1s-0.3,0.2-0.4,0.3
				s-0.2,0.3-0.2,0.4c0,0.1-0.1,0.2-0.1,0.3v2.9h-0.8v-4.6h0.9V45.5z"/>
			<path class="st0" d="M127.8,50.2c-0.1,0.1-0.3,0.1-0.5,0.1s-0.4-0.1-0.5-0.2c-0.1-0.1-0.2-0.3-0.2-0.5c-0.2,0.3-0.5,0.4-0.7,0.5
				c-0.3,0.1-0.6,0.2-0.9,0.2c-0.2,0-0.4,0-0.6-0.1c-0.2,0-0.4-0.1-0.5-0.2c-0.1-0.1-0.2-0.2-0.3-0.4c-0.1-0.2-0.1-0.4-0.1-0.6
				c0-0.3,0-0.5,0.1-0.6c0.1-0.2,0.2-0.3,0.4-0.4c0.1-0.1,0.3-0.2,0.5-0.2c0.2-0.1,0.4-0.1,0.6-0.1s0.4-0.1,0.6-0.1s0.4-0.1,0.5-0.1
				s0.3-0.1,0.3-0.2c0.1-0.1,0.1-0.2,0.1-0.3c0-0.2,0-0.3-0.1-0.4c-0.1-0.1-0.1-0.2-0.2-0.2c-0.1-0.1-0.2-0.1-0.3-0.1
				c-0.1,0-0.2,0-0.4,0c-0.3,0-0.6,0.1-0.8,0.2c-0.2,0.1-0.3,0.4-0.3,0.7h-0.8c0-0.3,0.1-0.5,0.2-0.7s0.3-0.4,0.4-0.5
				c0.2-0.1,0.4-0.2,0.6-0.3s0.5-0.1,0.7-0.1s0.4,0,0.6,0s0.4,0.1,0.6,0.2c0.2,0.1,0.3,0.2,0.4,0.4s0.2,0.4,0.2,0.7v2.4
				c0,0.2,0,0.3,0,0.4c0,0.1,0.1,0.1,0.2,0.1s0.1,0,0.2,0L127.8,50.2L127.8,50.2z M126.6,47.8c-0.1,0.1-0.2,0.1-0.4,0.2
				c-0.2,0-0.3,0.1-0.5,0.1s-0.3,0-0.5,0.1c-0.2,0-0.3,0.1-0.5,0.1c-0.1,0.1-0.2,0.1-0.3,0.3c-0.1,0.1-0.1,0.3-0.1,0.4
				c0,0.1,0,0.2,0.1,0.3s0.1,0.2,0.2,0.2c0.1,0.1,0.2,0.1,0.3,0.1c0.1,0,0.2,0,0.3,0c0.3,0,0.5,0,0.6-0.1c0.2-0.1,0.3-0.2,0.4-0.3
				s0.2-0.2,0.3-0.3c0.1-0.1,0.1-0.2,0.1-0.3V47.8z M126.8,43.3l-1.3,1.4H125l0.9-1.4H126.8z"/>
			<path class="st0" d="M130.5,45.5v0.7h-0.9v2.9c0,0.1,0,0.2,0,0.2c0,0.1,0,0.1,0.1,0.1c0,0,0.1,0,0.2,0.1c0.1,0,0.2,0,0.3,0h0.3
				v0.7h-0.6c-0.2,0-0.4,0-0.5,0s-0.3-0.1-0.3-0.1c-0.1-0.1-0.2-0.2-0.2-0.3s-0.1-0.3-0.1-0.5v-2.9H128v-0.7h0.8v-1.4h0.8v1.4h0.9
				V45.5z"/>
			<path class="st0" d="M131.4,44.7v-0.9h0.8v0.9H131.4z M132.1,45.5v4.6h-0.8v-4.6H132.1z"/>
			<path class="st0" d="M136.1,46.4c-0.2-0.2-0.4-0.2-0.8-0.2c-0.3,0-0.5,0.1-0.7,0.2c-0.2,0.1-0.3,0.2-0.4,0.4
				c-0.1,0.2-0.2,0.4-0.2,0.6c0,0.2-0.1,0.4-0.1,0.7c0,0.2,0,0.4,0.1,0.6c0.1,0.2,0.1,0.4,0.2,0.5c0.1,0.2,0.2,0.3,0.4,0.4
				c0.2,0.1,0.4,0.1,0.6,0.1c0.4,0,0.7-0.1,0.9-0.3s0.3-0.5,0.4-0.8h0.8c-0.1,0.6-0.3,1-0.6,1.3s-0.8,0.5-1.4,0.5
				c-0.4,0-0.7-0.1-0.9-0.2c-0.3-0.1-0.5-0.3-0.7-0.5s-0.3-0.5-0.4-0.7c-0.1-0.3-0.1-0.6-0.1-1c0-0.3,0-0.7,0.1-1s0.2-0.6,0.4-0.8
				s0.4-0.4,0.7-0.5s0.6-0.2,1-0.2c0.3,0,0.5,0,0.7,0.1s0.4,0.2,0.6,0.3c0.2,0.1,0.3,0.3,0.4,0.5c0.1,0.2,0.2,0.4,0.2,0.7h-0.8
				C136.4,46.7,136.3,46.5,136.1,46.4z"/>
			<path class="st0" d="M142.2,50.2c-0.1,0.1-0.3,0.1-0.5,0.1s-0.4-0.1-0.5-0.2c-0.1-0.1-0.2-0.3-0.2-0.5c-0.2,0.3-0.5,0.4-0.7,0.5
				c-0.3,0.1-0.6,0.2-0.9,0.2c-0.2,0-0.4,0-0.6-0.1c-0.2,0-0.4-0.1-0.5-0.2c-0.1-0.1-0.2-0.2-0.3-0.4s-0.1-0.4-0.1-0.6
				c0-0.3,0-0.5,0.1-0.6c0.1-0.2,0.2-0.3,0.4-0.4c0.1-0.1,0.3-0.2,0.5-0.2c0.2-0.1,0.4-0.1,0.6-0.1c0.2,0,0.4-0.1,0.6-0.1
				c0.2,0,0.4-0.1,0.5-0.1s0.3-0.1,0.3-0.2c0.1-0.1,0.1-0.2,0.1-0.3c0-0.2,0-0.3-0.1-0.4c-0.1-0.1-0.1-0.2-0.2-0.2
				c-0.1-0.1-0.2-0.1-0.3-0.1s-0.2,0-0.4,0c-0.3,0-0.6,0.1-0.8,0.2c-0.2,0.1-0.3,0.4-0.3,0.7H138c0-0.3,0.1-0.5,0.2-0.7
				c0.1-0.2,0.3-0.4,0.4-0.5c0.2-0.1,0.4-0.2,0.6-0.3c0.2-0.1,0.5-0.1,0.7-0.1s0.4,0,0.6,0c0.2,0,0.4,0.1,0.6,0.2
				c0.2,0.1,0.3,0.2,0.4,0.4c0.1,0.2,0.2,0.4,0.2,0.7v2.4c0,0.2,0,0.3,0,0.4c0,0.1,0.1,0.1,0.2,0.1c0.1,0,0.1,0,0.2,0v0.4H142.2z
				 M141,47.8c-0.1,0.1-0.2,0.1-0.4,0.2c-0.2,0-0.3,0.1-0.5,0.1s-0.3,0-0.5,0.1c-0.2,0-0.3,0.1-0.5,0.1c-0.1,0.1-0.2,0.1-0.3,0.3
				c-0.1,0.1-0.1,0.3-0.1,0.4c0,0.1,0,0.2,0.1,0.3s0.1,0.2,0.2,0.2c0.1,0.1,0.2,0.1,0.3,0.1s0.2,0,0.3,0c0.3,0,0.5,0,0.6-0.1
				c0.2-0.1,0.3-0.2,0.4-0.3c0.1-0.1,0.2-0.2,0.3-0.3s0.1-0.2,0.1-0.3L141,47.8L141,47.8z"/>
			<path class="st0" d="M143.5,49.1c0.1,0.1,0.2,0.2,0.3,0.3s0.2,0.1,0.4,0.1c0.1,0,0.3,0,0.5,0c0.1,0,0.2,0,0.4,0
				c0.1,0,0.3-0.1,0.4-0.1c0.1,0,0.2-0.1,0.3-0.2c0.1-0.1,0.1-0.2,0.1-0.4s-0.1-0.3-0.2-0.4c-0.1-0.1-0.3-0.2-0.6-0.2
				c-0.2-0.1-0.5-0.1-0.7-0.2c-0.3-0.1-0.5-0.1-0.7-0.2c-0.2-0.1-0.4-0.2-0.6-0.4c-0.1-0.2-0.2-0.4-0.2-0.7c0-0.2,0.1-0.4,0.2-0.6
				c0.1-0.2,0.2-0.3,0.4-0.4c0.2-0.1,0.3-0.2,0.6-0.2s0.4-0.1,0.6-0.1c0.3,0,0.5,0,0.7,0.1c0.2,0,0.4,0.1,0.6,0.2
				c0.2,0.1,0.3,0.3,0.4,0.4c0.1,0.2,0.2,0.4,0.2,0.7h-0.8c0-0.1-0.1-0.3-0.1-0.4c-0.1-0.1-0.1-0.2-0.3-0.2
				c-0.1-0.1-0.2-0.1-0.3-0.1s-0.2,0-0.4,0c-0.1,0-0.2,0-0.3,0s-0.2,0-0.3,0.1c-0.1,0-0.2,0.1-0.2,0.2c-0.1,0.1-0.1,0.2-0.1,0.3
				s0,0.2,0.1,0.3s0.2,0.2,0.4,0.2c0.1,0.1,0.3,0.1,0.5,0.1s0.4,0.1,0.5,0.1c0.2,0,0.4,0.1,0.6,0.2c0.2,0.1,0.3,0.1,0.5,0.2
				c0.1,0.1,0.3,0.2,0.3,0.4c0.1,0.1,0.1,0.3,0.1,0.6s-0.1,0.5-0.2,0.7c-0.1,0.2-0.3,0.3-0.5,0.4c-0.2,0.1-0.4,0.2-0.6,0.2
				c-0.2,0-0.5,0.1-0.7,0.1c-0.3,0-0.5,0-0.7-0.1s-0.4-0.1-0.6-0.3c-0.2-0.1-0.3-0.3-0.4-0.5c-0.1-0.2-0.2-0.4-0.2-0.7h0.8
				C143.4,48.9,143.4,49,143.5,49.1z"/>
		</g>
	</g>
	<g>
		<path class="st1" d="M9.9,57.5l15-4.8l2.5-18.4c0,0-4.1-1.5-8.7,0.8c-3.6,1.8-5.9,5.8-5.9,5.8L9.9,57.5z"/>
		<path class="st1" d="M6.1,21.4L4,35l10.3-4.1v3.5c0,0,12.8-14.9,24.9-9.2l2.9-14.6L6.1,21.4z"/>
	</g>
</g>
</svg>
